HIERARCHY
ROOT Hips
{
	OFFSET 0.000000 88.474243 0.000000
	CHANNELS 6 Xposition Yposition Zposition Zrotation Yrotation Xrotation 
	JOINT Hips_Spine
	{
		OFFSET 0.000000 0.000000 0.000000
		CHANNELS 3 Zrotation Yrotation Xrotation
		JOINT Spine
		{
			OFFSET 0.005100 8.711998 -0.691000
			CHANNELS 3 Zrotation Yrotation Xrotation
			JOINT Spine1
			{
				OFFSET -0.009200 8.660301 -1.275000
				CHANNELS 3 Zrotation Yrotation Xrotation
				JOINT Spine2
				{
					OFFSET 0.006300 9.852501 -1.857000
					CHANNELS 3 Zrotation Yrotation Xrotation
					JOINT Spine2_Neck
					{
						OFFSET 0.000000 0.000000 0.000000
						CHANNELS 3 Zrotation Yrotation Xrotation
						JOINT Neck
						{
							OFFSET 0.016300 11.420799 -0.263300
							CHANNELS 3 Zrotation Yrotation Xrotation
							End Site #name: Head
							{
								OFFSET -0.019200 9.262405 2.362500
							}
						}
					}
					JOINT Spine2_LeftShoulder
					{
						OFFSET 0.000000 0.000000 0.000000
						CHANNELS 3 Zrotation Yrotation Xrotation
						JOINT LeftShoulder
						{
							OFFSET 5.616900 6.732201 -0.345700
							CHANNELS 3 Zrotation Yrotation Xrotation
							JOINT LeftArm
							{
								OFFSET 10.664888 -0.183372 -2.440700
								CHANNELS 3 Zrotation Yrotation Xrotation
								JOINT LeftForeArm
								{
									OFFSET 27.459126 0.000000 0.000000
									CHANNELS 3 Zrotation Yrotation Xrotation
									End Site #name: LeftHand
									{
										OFFSET 21.306858 0.000000 0.000000
									}
								}
							}
						}
					}
					JOINT Spine2_RightShoulder
					{
						OFFSET 0.000000 0.000000 0.000000
						CHANNELS 3 Zrotation Yrotation Xrotation
						JOINT RightShoulder
						{
							OFFSET -5.580300 6.737503 -0.344400
							CHANNELS 3 Zrotation Yrotation Xrotation
							JOINT RightArm
							{
								OFFSET -10.679335 -0.188484 -2.383900
								CHANNELS 3 Zrotation Yrotation Xrotation
								JOINT RightForeArm
								{
									OFFSET -27.503529 0.000000 0.000000
									CHANNELS 3 Zrotation Yrotation Xrotation
									End Site #name: RightHand
									{
										OFFSET -21.306808 0.000000 0.000000
									}
								}
							}
						}
					}
				}
			}
		}
	}
	JOINT Hips_LeftUpLeg
	{
		OFFSET 0.000000 0.000000 0.000000
		CHANNELS 3 Zrotation Yrotation Xrotation
		JOINT LeftUpLeg
		{
			OFFSET 6.857700 -6.739601 0.312100
			CHANNELS 3 Zrotation Yrotation Xrotation
			JOINT LeftLeg
			{
				OFFSET -0.367590 -34.731552 -4.572400
				CHANNELS 3 Zrotation Yrotation Xrotation
				End Site #name: LeftFoot
				{
					OFFSET 0.367590 -34.656704 -6.067400
				}
			}
		}
	}
	JOINT Hips_RightUpLeg
	{
		OFFSET 0.000000 0.000000 0.000000
		CHANNELS 3 Zrotation Yrotation Xrotation
		JOINT RightUpLeg
		{
			OFFSET -6.876100 -6.733299 0.301000
			CHANNELS 3 Zrotation Yrotation Xrotation
			JOINT RightLeg
			{
				OFFSET 0.347353 -34.795158 -4.515900
				CHANNELS 3 Zrotation Yrotation Xrotation
				End Site #name: RightFoot
				{
					OFFSET -0.347353 -34.589367 -6.070300
				}
			}
		}
	}
}
MOTION
Frames: 9
Frame Time: 0.041667
0.056765 0.007398 0.012453 -0.996054 -3.720132 -1.942610 0.000000 0.000000 0.000000 0.819775 1.290165 8.356378 -0.803397 0.861327 0.344431 0.000000 0.000000 0.000000 -0.368932 -0.010392 -1.909981 1.109979 -1.746063 4.676134 -1.610063 -0.204645 0.028496 -4.771445 -5.928713 1.511637 -64.621179 3.622144 43.084348 0.187591 -23.722312 -0.302424 -0.549516 0.583887 0.409214 10.924361 -2.642782 1.831306 62.142517 23.243239 19.403187 178.882756 65.727443 179.728499 0.000000 0.000000 0.000000 -0.233062 8.229757 -16.701750 3.963243 5.354749 19.525855 0.000000 0.000000 0.000000 -1.926870 -10.101240 -11.399422 -1.713084 -3.054087 17.513930 
0.081517 0.052215 -0.044018 -1.103265 -3.443184 -1.720053 0.000000 0.000000 0.000000 -0.430302 0.450898 4.252352 -0.855215 0.508330 1.103088 0.000000 0.000000 0.000000 -0.646095 -0.242162 0.150375 2.923711 -1.426887 5.513546 -0.566809 -0.266533 0.998734 -3.582786 2.219620 0.230742 -61.785706 5.884122 47.943772 0.150089 -19.701964 0.287083 -1.204589 -0.084754 0.900975 9.947815 -1.633097 0.722996 59.382438 31.201000 5.366012 179.245776 52.059639 179.818671 0.000000 0.000000 -0.000000 0.435702 10.025004 -15.912010 3.181610 5.463990 17.957331 0.000000 0.000000 0.000000 -2.035870 -10.342466 -11.810745 -1.807363 -3.038839 17.303334 
0.186975 0.047128 -0.105589 -1.375084 -3.369720 -1.535940 0.000000 0.000000 0.000000 -0.462769 0.295409 3.627039 -0.701321 0.247573 1.698183 0.000000 0.000000 0.000000 -0.814773 -0.309417 0.541441 2.792427 -1.257147 4.877212 -0.838028 0.008332 2.170775 -5.777633 4.398101 -0.155348 -62.465169 2.895389 42.438336 0.066861 -14.099762 0.088914 -1.144190 -0.069461 1.443126 10.285789 -2.248126 0.316595 54.330041 26.666924 1.868542 179.458148 53.758227 -179.937582 0.000000 0.000000 -0.000000 0.891057 11.174977 -16.274679 3.299638 5.593680 18.112844 -0.000000 0.000000 0.000000 -1.882028 -10.199080 -11.954026 -1.420875 -2.860212 17.036417 
0.317415 0.035402 -0.172164 -1.634893 -3.320291 -1.358998 0.000000 0.000000 0.000000 -0.692257 0.562555 3.977479 -0.780459 0.127187 2.377034 0.000000 0.000000 0.000000 -0.906922 -0.288551 1.180620 1.843812 -1.654475 6.033688 -1.016995 -0.109391 2.409062 -5.332956 5.500000 -0.483199 -65.272458 0.013882 39.458438 0.055874 -10.754195 0.133553 -1.147976 -0.098072 1.946958 9.565068 -2.726849 0.284059 50.816853 30.275414 -2.294347 179.391298 48.870912 -179.843101 -0.000000 0.000000 -0.000000 1.116604 11.730319 -16.603609 3.533373 5.687165 18.295586 -0.000000 0.000000 0.000000 -1.754170 -10.101689 -12.100739 -0.899400 -2.295863 17.088446 
0.472015 0.027668 -0.235823 -1.843008 -3.348694 -1.244840 0.000000 0.000000 0.000000 -0.882875 0.801977 4.368132 -1.001187 0.081190 2.524648 0.000000 0.000000 0.000000 -1.157508 -0.304304 1.316041 1.573257 -2.067232 7.297606 -1.180281 -0.278104 2.443353 -4.778334 5.832443 -0.527075 -67.037042 -1.909632 37.988323 0.057519 -9.116018 0.131741 -1.369251 -0.141277 2.196892 9.512179 -3.464238 0.239784 49.672912 34.033825 -4.198265 179.456092 44.958673 -179.747359 -0.000000 0.000000 -0.000000 1.245363 11.992017 -16.851017 3.625540 5.598092 18.593495 -0.000000 0.000000 0.000000 -1.704640 -9.905474 -12.181710 -0.509655 -2.024610 17.139424 
0.632941 0.022517 -0.295861 -1.985233 -3.426587 -1.172593 0.000000 -0.000000 0.000000 -1.043095 0.858580 4.569136 -1.204419 0.085143 2.568235 0.000000 0.000000 0.000000 -1.352884 -0.328848 1.370697 1.799849 -2.373672 8.167858 -1.300134 -0.395705 2.531514 -4.365113 5.672552 -0.482717 -68.373030 -2.983113 37.174896 0.086500 -8.271453 0.115133 -1.563005 -0.192406 2.249541 9.261100 -3.466168 0.262348 49.317908 36.062773 -5.292909 179.429897 43.354390 -179.704999 -0.000000 0.000000 -0.000000 1.316896 12.104862 -17.019900 3.622027 5.415668 18.887435 -0.000000 0.000000 0.000000 -1.662416 -9.720729 -12.179520 -0.274248 -1.866671 17.031544 
0.785945 0.018265 -0.353657 -2.086722 -3.495698 -1.105496 0.000000 -0.000000 0.000000 -1.039295 0.835167 4.734675 -1.297638 0.087005 2.583698 0.000000 0.000000 0.000000 -1.466234 -0.334423 1.387948 2.242513 -2.642016 8.593266 -1.390705 -0.396463 2.558780 -3.989911 5.790033 -0.490649 -69.074618 -3.431734 36.178686 0.103900 -8.344348 0.138980 -1.667355 -0.181971 2.218493 8.858352 -3.296022 0.289384 49.439161 36.687576 -5.452418 179.414017 42.627288 -179.706467 -0.000000 0.000000 -0.000000 1.344941 12.163994 -17.154762 3.578527 5.190791 19.082072 -0.000000 0.000000 0.000000 -1.618023 -9.667608 -12.212592 -0.174235 -1.720392 16.958798 
0.917246 0.013667 -0.407882 -2.175969 -3.537507 -1.031168 0.000000 -0.000000 0.000000 -1.014184 0.862903 4.817673 -1.346942 0.126250 2.572528 0.000000 0.000000 0.000000 -1.542068 -0.294335 1.378669 2.587097 -2.886020 8.911198 -1.446554 -0.331559 2.554765 -3.764095 5.991925 -0.521625 -69.256075 -3.485998 35.491773 0.108576 -8.968735 0.154483 -1.741707 -0.122014 2.171857 8.350447 -3.175462 0.310176 49.318855 36.395053 -5.451836 179.413406 42.830024 -179.711518 -0.000000 0.000000 -0.000000 1.356712 12.194991 -17.276117 3.535990 4.959933 19.172205 -0.000000 0.000000 0.000000 -1.555792 -9.680257 -12.304990 -0.141558 -1.623973 16.976471 
1.012897 0.008205 -0.456384 -2.268731 -3.571775 -0.956979 0.000000 -0.000000 0.000000 -1.005535 0.884489 4.860116 -1.374107 0.167817 2.561369 0.000000 0.000000 0.000000 -1.600814 -0.245437 1.370487 2.877813 -3.039194 9.103664 -1.492797 -0.254874 2.544597 -3.627943 6.270631 -0.563503 -69.228290 -3.197007 35.043989 0.107977 -9.518241 0.158775 -1.801232 -0.064420 2.131112 7.814439 -3.127368 0.317706 48.792325 35.872722 -5.671525 179.409052 43.308329 -179.719426 -0.000000 0.000000 -0.000000 1.380753 12.206772 -17.393540 3.501308 4.744002 19.221156 -0.000000 0.000000 0.000000 -1.475479 -9.697745 -12.421086 -0.128871 -1.576321 17.052005 
